<?xml version="1.0" encoding="iso-8859-1"?>
<!-- Generator: Adobe Illustrator 16.0.0, SVG Export Plug-In . SVG Version: 6.00 Build 0)  -->
<!DOCTYPE svg PUBLIC "-//W3C//DTD SVG 1.1//EN" "http://www.w3.org/Graphics/SVG/1.1/DTD/svg11.dtd">
<svg xmlns="http://www.w3.org/2000/svg" xmlns:xlink="http://www.w3.org/1999/xlink" version="1.1" id="Capa_1" x="0px" y="0px" width="512px" height="512px" viewBox="0 0 742.701 742.701" style="enable-background:new 0 0 742.701 742.701;" xml:space="preserve">
<g>
	<g>
		<path d="M614.562,285.843l-0.025-0.053c0.03,0.007,0.062,0.015,0.096,0.019C614.61,285.823,614.583,285.829,614.562,285.843z" fill="#FFFFFF"/>
		<path d="M605.239,270.413c-0.003-0.001-0.005-0.001-0.006-0.001c0.001-0.016,0.006-0.032,0.006-0.047V270.413z" fill="#FFFFFF"/>
	</g>
	<g>
		<path d="M158.614,371.225c4.098-0.209,15.352-0.087,23.055,4.888c2.074,1.34,3.875,2.945,6.523,3.184    c1.117,0.102,8.489,0.217,8.598-8.598L154.431,57.637c-0.885-16.978,12.162-31.472,29.146-32.357    c16.979-0.878,31.473,12.161,32.357,29.139c0,0,36.931,215.154,37.125,215.961c0,0,1.655,7.891,10.029,7.848    c5.729-0.029,10.361-4.644,10.361-10.368l18.54-237.065C291.989,13.789,305.77,0,322.777,0c17.015,0,30.81,13.789,30.81,30.795    l-16.589,234.696c0.894-13.832,15.02-18.533,32.939-17.936c10.857,0.36,28.995,5.53,32.991,25.33l0.015,9.641    c3.614-12.406,17.267-17.871,32.726-15.963c7.172,0.886,19.404,6.963,19.404,25.193v158.128c0,2.967,6.745,133.375-39.674,168.16    v81.686c0,23.73-14.329,42.971-38.066,42.971c0,0-117.023-0.094-118.463-0.244c-21.666-0.729-42.619-18.34-42.619-40.033v-79.791    c-22.082-5.537-81.182-118.312-84.205-147.807l-3.938-81.002C127.216,376.826,141.63,372.117,158.614,371.225z" fill="#FFFFFF"/>
	</g>
</g>
<g>
</g>
<g>
</g>
<g>
</g>
<g>
</g>
<g>
</g>
<g>
</g>
<g>
</g>
<g>
</g>
<g>
</g>
<g>
</g>
<g>
</g>
<g>
</g>
<g>
</g>
<g>
</g>
<g>
</g>
</svg>
